<svg width="42" height="30" viewBox="0 0 42 30" fill="none" xmlns="http://www.w3.org/2000/svg">
<g id="Group 1597884633">
<path id="Vector 8" d="M27.1144 21.4307C12.4744 29.7107 -3.72568 29.1107 1.67434 22.2707C2.27432 29.1107 23.7544 23.1188 27.1144 21.4307Z" fill="#CE1D0E"/>
<path id="Vector 9" d="M28.7941 25.3909C20.6341 29.8309 8.42523 30.8823 4.53711 28.5109C12.6378 29.3628 20.7767 26.4009 27.4741 22.8709C35.8711 18.4452 41.7541 13.3909 40.1941 8.71094C44.6341 14.5909 35.7586 21.6014 28.7941 25.3909Z" fill="white"/>
<path id="Subtract" d="M38.0343 13.1797V10.2243L35.1543 8.56152V15.7293C36.1861 14.8781 37.1512 14.0263 38.0343 13.1797Z" fill="#CE1D0E"/>
<path id="Union" fill-rule="evenodd" clip-rule="evenodd" d="M27.1303 2.25351L27.1295 2.25329L28.1939 1.63113L25.8715 0.311969L25.8867 0.254883L34.4916 1.27536L12.8341 13.9758V23.7567C11.8808 23.9147 10.9197 24.0442 9.9541 24.14V12.326L27.1303 2.25351ZM14.7541 23.399C15.7263 23.1984 16.6875 22.971 17.6341 22.7226L17.6341 13.0775L14.7541 14.7371L14.7541 23.399ZM22.6741 21.1776C22.4183 21.2667 22.1603 21.3549 21.9004 21.4422C21.21 21.6742 20.5074 21.8989 19.7941 22.1136V11.8327L22.6741 10.173L22.6741 21.1776ZM24.8341 20.3853C25.8391 19.9963 26.802 19.593 27.7141 19.1758V7.26861L24.8341 8.92829V20.3853ZM33.2341 4.08757V17.2546C33.1335 17.3317 33.0325 17.4088 32.9309 17.4859C32.0999 18.1167 31.2402 18.7413 30.3541 19.3508V5.74724L33.2341 4.08757Z" fill="white"/>
<path id="Subtract_2" d="M21.0559 0.413086L23.919 2.06606L7.43469 11.8122V23.8493C6.38063 23.8392 5.40665 23.7556 4.55469 23.58V10.1693L21.0559 0.413086Z" fill="#CE1D0E"/>
</g>
</svg>
