<svg width="24" height="24" viewBox="0 0 24 24" fill="none" xmlns="http://www.w3.org/2000/svg">
<g id="48*48">
<path id="Vector" d="M20.6476 2.67383L13.1523 8.24068L14.5384 4.95631L20.6476 2.67383Z" fill="#E2761B" stroke="#E2761B" stroke-width="0.0753296" stroke-linecap="round" stroke-linejoin="round"/>
<path id="Vector_2" d="M3.34467 2.67383L10.7797 8.29341L9.46143 4.95631L3.34467 2.67383ZM17.9511 15.5778L15.9548 18.6362L20.226 19.8113L21.4539 15.6456L17.9511 15.5778ZM2.55371 15.6456L3.77405 19.8113L8.04524 18.6362L6.049 15.5778L2.55371 15.6456Z" fill="#E4761B" stroke="#E4761B" stroke-width="0.0753296" stroke-linecap="round" stroke-linejoin="round"/>
<path id="Vector_3" d="M7.80349 10.4105L6.61328 12.2109L10.8543 12.3992L10.7037 7.84179L7.80349 10.4105ZM16.1877 10.4105L13.2498 7.78906L13.1519 12.3992L17.3854 12.2109L16.1877 10.4105ZM8.04454 18.6365L10.5907 17.3936L8.39106 15.6761L8.04454 18.6365ZM13.4005 17.3936L15.9541 18.6365L15.6001 15.6761L13.4005 17.3936Z" fill="#E4761B" stroke="#E4761B" stroke-width="0.0753296" stroke-linecap="round" stroke-linejoin="round"/>
<path id="Vector_4" d="M15.9545 18.6365L13.4009 17.3936L13.6042 19.0583L13.5816 19.7589L15.9545 18.6365ZM8.04492 18.6365L10.4178 19.7589L10.4027 19.0583L10.5911 17.3936L8.04492 18.6365Z" fill="#D7C1B3" stroke="#D7C1B3" stroke-width="0.0753296" stroke-linecap="round" stroke-linejoin="round"/>
<path id="Vector_5" d="M10.4553 14.5764L8.33105 13.9511L9.83011 13.2656L10.4553 14.5764ZM13.5363 14.5764L14.1616 13.2656L15.6682 13.9511L13.5363 14.5764Z" fill="#233447" stroke="#233447" stroke-width="0.0753296" stroke-linecap="round" stroke-linejoin="round"/>
<path id="Vector_6" d="M8.04506 18.6365L8.40664 15.5782L6.04883 15.646L8.04506 18.6365ZM15.5931 15.5782L15.9547 18.6365L17.9509 15.646L15.5931 15.5782ZM17.3859 12.2109L13.1524 12.3993L13.5441 14.5763L14.1694 13.2656L15.6759 13.951L17.3859 12.2109ZM8.33131 13.951L9.83791 13.2656L10.4556 14.5763L10.8549 12.3993L6.6138 12.2109L8.33131 13.951Z" fill="#CD6116" stroke="#CD6116" stroke-width="0.0753296" stroke-linecap="round" stroke-linejoin="round"/>
<path id="Vector_7" d="M6.61328 12.2109L8.39106 15.6761L8.33079 13.951L6.61328 12.2109ZM15.6754 13.951L15.6001 15.6761L17.3854 12.2109L15.6754 13.951ZM10.8543 12.3993L10.4551 14.5763L10.9523 17.145L11.0653 13.7627L10.8543 12.3993ZM13.1519 12.3993L12.9485 13.7552L13.0389 17.145L13.5436 14.5763L13.1519 12.3993Z" fill="#E4751F" stroke="#E4751F" stroke-width="0.0753296" stroke-linecap="round" stroke-linejoin="round"/>
<path id="Vector_8" d="M13.5439 14.5764L13.0392 17.1451L13.4007 17.3937L15.6004 15.6762L15.6757 13.9512L13.5439 14.5764ZM8.33105 13.9512L8.39132 15.6762L10.5909 17.3937L10.9525 17.1451L10.4553 14.5764L8.33105 13.9512Z" fill="#F6851B" stroke="#F6851B" stroke-width="0.0753296" stroke-linecap="round" stroke-linejoin="round"/>
<path id="Vector_9" d="M13.5816 19.7591L13.6042 19.0586L13.4159 18.8928H10.576L10.4027 19.0586L10.4178 19.7591L8.04492 18.6367L8.87355 19.3147L10.5534 20.4823H13.4385L15.1259 19.3147L15.9545 18.6367L13.5816 19.7591Z" fill="#C0AD9E" stroke="#C0AD9E" stroke-width="0.0753296" stroke-linecap="round" stroke-linejoin="round"/>
<path id="Vector_10" d="M13.4005 17.3931L13.0389 17.1445H10.9522L10.5907 17.3931L10.4023 19.0579L10.5756 18.8922H13.4155L13.6039 19.0579L13.4005 17.3931Z" fill="#161616" stroke="#161616" stroke-width="0.0753296" stroke-linecap="round" stroke-linejoin="round"/>
<path id="Vector_11" d="M20.9642 8.60226L21.6045 5.52882L20.6479 2.67383L13.4012 8.05236L16.1884 10.4102L20.1281 11.5627L21.0019 10.5458L20.6253 10.2746L21.2279 9.72468L20.7609 9.36309L21.3635 8.90358L20.9642 8.60226ZM2.39551 5.52882L3.03581 8.60226L2.62903 8.90358L3.23167 9.36309L2.77216 9.72468L3.37479 10.2746L2.99814 10.5458L3.86443 11.5627L7.80417 10.4102L10.5914 8.05236L3.34466 2.67383L2.39551 5.52882Z" fill="#763D16" stroke="#763D16" stroke-width="0.0753296" stroke-linecap="round" stroke-linejoin="round"/>
<path id="Vector_12" d="M20.1281 11.5634L16.1884 10.4109L17.3861 12.2113L15.6008 15.6764L17.9511 15.6463H21.4539L20.1281 11.5634ZM7.80418 10.4109L3.86445 11.5634L2.55371 15.6463H6.049L8.39175 15.6764L6.61398 12.2113L7.80418 10.4109ZM13.1526 12.3996L13.4012 8.05308L14.5462 4.95703H9.46143L10.5914 8.05308L10.855 12.3996L10.9454 13.7706L10.953 17.1454H13.0396L13.0547 13.7706L13.1526 12.3996Z" fill="#F6851B" stroke="#F6851B" stroke-width="0.0753296" stroke-linecap="round" stroke-linejoin="round"/>
</g>
</svg>
